<svg width="27" height="26" viewBox="0 0 27 26" fill="none" xmlns="http://www.w3.org/2000/svg">
<rect width="27" height="26" rx="2" fill="#1C7469"/>
<path d="M13.5 7.6747C15.2892 7.6747 15.5331 7.6747 16.2651 7.6747C16.9157 7.6747 17.241 7.83133 17.4849 7.90964C17.8102 8.06627 18.0542 8.14458 18.2982 8.37952C18.5422 8.61446 18.7048 8.8494 18.7861 9.16265C18.8675 9.39759 18.9488 9.71084 19.0301 10.3374C19.0301 11.0422 19.0301 11.1988 19.0301 13C19.0301 14.8012 19.0301 14.9578 19.0301 15.6627C19.0301 16.2892 18.8675 16.6024 18.7861 16.8373C18.6235 17.1506 18.5422 17.3855 18.2982 17.6205C18.0542 17.8554 17.8102 18.012 17.4849 18.0904C17.241 18.1687 16.9157 18.247 16.2651 18.3253C15.5331 18.3253 15.3705 18.3253 13.5 18.3253C11.6295 18.3253 11.4669 18.3253 10.7349 18.3253C10.0843 18.3253 9.75904 18.1687 9.51506 18.0904C9.18976 17.9337 8.94578 17.8554 8.70181 17.6205C8.45783 17.3855 8.29518 17.1506 8.21386 16.8373C8.13253 16.6024 8.05121 16.2892 7.96988 15.6627C7.96988 14.9578 7.96988 14.8012 7.96988 13C7.96988 11.1988 7.96988 11.0422 7.96988 10.3374C7.96988 9.71084 8.13253 9.39759 8.21386 9.16265C8.37651 8.8494 8.45783 8.61446 8.70181 8.37952C8.94578 8.14458 9.18976 7.98795 9.51506 7.90964C9.75904 7.83133 10.0843 7.75301 10.7349 7.6747C11.4669 7.6747 11.7108 7.6747 13.5 7.6747ZM13.5 6.5C11.6295 6.5 11.4669 6.5 10.7349 6.5C10.003 6.5 9.51506 6.65663 9.10843 6.81325C8.70181 6.96988 8.29518 7.20482 7.88855 7.59639C7.48193 7.98795 7.31928 8.30121 7.0753 8.77109C6.91265 9.16265 6.83133 9.63253 6.75 10.3374C6.75 11.0422 6.75 11.2771 6.75 13C6.75 14.8012 6.75 14.9578 6.75 15.6627C6.75 16.3675 6.91265 16.8373 7.0753 17.2289C7.23795 17.6205 7.48193 18.012 7.88855 18.4036C8.29518 18.7952 8.62048 18.9518 9.10843 19.1867C9.51506 19.3434 10.003 19.4217 10.7349 19.5C11.4669 19.5 11.7108 19.5 13.5 19.5C15.2892 19.5 15.5331 19.5 16.2651 19.5C16.997 19.5 17.4849 19.3434 17.8916 19.1867C18.2982 19.0301 18.7048 18.7952 19.1114 18.4036C19.5181 18.012 19.6807 17.6988 19.9247 17.2289C20.0874 16.8373 20.1687 16.3675 20.25 15.6627C20.25 14.9578 20.25 14.7229 20.25 13C20.25 11.2771 20.25 11.0422 20.25 10.3374C20.25 9.63253 20.0874 9.16265 19.9247 8.77109C19.762 8.37952 19.5181 7.98795 19.1114 7.59639C18.7048 7.20482 18.3795 7.04819 17.8916 6.81325C17.4849 6.65663 16.997 6.57831 16.2651 6.5C15.5331 6.5 15.3705 6.5 13.5 6.5Z" fill="white"/>
<path d="M13.5 9.63253C11.5482 9.63253 10.003 11.1205 10.003 13C10.003 14.8795 11.5482 16.3675 13.5 16.3675C15.4518 16.3675 16.997 14.8795 16.997 13C16.997 11.1205 15.4518 9.63253 13.5 9.63253ZM13.5 15.1928C12.2801 15.1928 11.2229 14.253 11.2229 13C11.2229 11.8253 12.1988 10.8072 13.5 10.8072C14.7199 10.8072 15.7771 11.747 15.7771 13C15.7771 14.1747 14.7199 15.1928 13.5 15.1928Z" fill="white"/>
<path d="M17.0783 10.3374C17.5275 10.3374 17.8916 9.98673 17.8916 9.55422C17.8916 9.12171 17.5275 8.77109 17.0783 8.77109C16.6292 8.77109 16.2651 9.12171 16.2651 9.55422C16.2651 9.98673 16.6292 10.3374 17.0783 10.3374Z" fill="white"/>
</svg>
