<svg width="27" height="26" viewBox="0 0 27 26" fill="none" xmlns="http://www.w3.org/2000/svg">
<rect width="27" height="26" rx="2" fill="#1C7469"/>
<path d="M14.1632 17.55C9.08953 17.55 6.19559 14.134 6.07501 8.44995H8.61649C8.69997 12.6219 10.5736 14.3891 12.0577 14.7535V8.44995H14.4507V12.048C15.9163 11.8932 17.456 10.2536 17.9754 8.44995H20.3685C20.1728 9.38535 19.7826 10.271 19.2224 11.0516C18.6622 11.8321 17.944 12.4908 17.1128 12.9863C18.0406 13.4391 18.8602 14.0799 19.5173 14.8666C20.1744 15.6532 20.6542 16.5678 20.925 17.55H18.2908C18.0477 16.6969 17.5537 15.9333 16.8706 15.3548C16.1874 14.7763 15.3457 14.4087 14.4507 14.298V17.55H14.1632Z" fill="white"/>
</svg>
