<svg width="60" height="45" viewBox="0 0 60 45" fill="none" xmlns="http://www.w3.org/2000/svg">
<g clip-path="url(#clip0_247_395)">
<path d="M11.7418 3.59839H8.72353L8.64991 3.85642L0.147233 29.5859L0 30.0651H3.01827L3.09188 29.8071L11.5946 4.07759L11.7418 3.59839ZM22.5266 3.59839H19.6187H15.0913L15.0177 3.85642L14.3552 6.17871L14.2079 6.65791H18.5145L10.9688 29.5859L10.8216 30.0651H13.8399L13.9135 29.8071L22.4162 4.07759L22.5266 3.59839ZM59.9605 3.59839H52.3044L52.2308 3.85642L51.5682 6.17871L51.421 6.65791H55.9116L54.3288 11.3393V11.3762C54.0344 12.0029 53.8135 12.7032 53.6663 13.3667L53.5927 13.6248L53.8135 13.7722C55.8011 15.173 56.9422 17.4584 56.9422 19.8544C56.9422 23.9829 53.5927 27.3005 49.507 27.3005C49.4333 27.3005 49.3229 27.3005 49.2493 27.3005L48.9548 27.2636L48.8444 27.5217L48.1819 29.4016L48.0346 29.8439L48.4763 29.9177C48.8812 29.9545 49.1021 29.9545 49.507 29.9545C55.1018 29.9545 59.6292 25.4205 59.6292 19.8175C59.6292 17.2004 58.6354 14.7675 56.8318 12.8507L59.7764 4.07759L59.9605 3.59839ZM35.7775 3.56152C28.5263 3.56152 22.6002 9.49626 22.6002 16.758C22.6002 24.0198 28.5263 29.9545 35.7775 29.9545C43.0287 29.9545 48.9548 24.0198 48.9548 16.758C48.9548 9.49626 43.0287 3.56152 35.7775 3.56152ZM35.7775 27.1899C30.0354 27.1899 25.3608 22.5085 25.3608 16.758C25.3608 11.0076 30.0354 6.32615 35.7775 6.32615C41.5196 6.32615 46.1942 11.0076 46.1942 16.758C46.1942 22.5085 41.5196 27.1899 35.7775 27.1899Z" fill="white"/>
<path d="M34.4458 0L29.8815 13.2702H32.5317L37.0959 0H34.4458Z" fill="white"/>
</g>
<path d="M17.6124 44.208H19.8921V41.9283H17.6124V44.208Z" fill="white"/>
<path d="M28.8723 36.8845C28.0174 36.8845 27.419 37.2407 26.963 37.7394C26.6068 37.1695 26.0226 36.8845 25.3102 36.8845C24.5693 36.8845 23.9994 37.2407 23.6717 37.7251V37.084H21.5345V44.208H23.6717V39.7626C23.6717 39.0645 24.0707 38.8507 24.4981 38.8507C24.8971 38.8507 25.239 39.0217 25.239 39.5916V44.208H27.3762V39.7626C27.3762 39.0645 27.7752 38.8507 28.2026 38.8507C28.6015 38.8507 28.9435 39.0217 28.9435 39.5916V44.208H31.0807V39.4064C31.0807 37.7679 30.2686 36.8845 28.8723 36.8845Z" fill="white"/>
<path d="M34.3378 41.5009H39.4244C39.4814 41.2302 39.5099 40.9452 39.5099 40.646C39.5099 38.4945 37.9996 36.8845 35.9193 36.8845C33.6682 36.8845 32.1009 38.523 32.1009 40.646C32.1009 42.7689 33.6112 44.4075 35.9763 44.4075C37.5864 44.4075 38.8402 43.6238 39.3104 42.1278L37.2302 42.142C37.0164 42.4555 36.5178 42.6835 36.0048 42.6835C35.2639 42.6835 34.5943 42.3415 34.3378 41.5009ZM34.3236 39.8766C34.5515 39.1642 35.1072 38.7795 35.9051 38.7795C36.532 38.7795 37.1589 39.0645 37.3869 39.8766H34.3236Z" fill="white"/>
<path d="M45.8663 34.2344V37.7536C45.3961 37.2122 44.6979 36.8845 43.7433 36.8845C41.8768 36.8845 40.338 38.523 40.338 40.646C40.338 42.7689 41.8768 44.4075 43.7433 44.4075C44.6979 44.4075 45.3961 44.0798 45.8663 43.5383V44.208H48.0035V34.2344H45.8663ZM44.1707 42.3842C43.1876 42.3842 42.4752 41.7146 42.4752 40.646C42.4752 39.5774 43.1876 38.9077 44.1707 38.9077C45.1539 38.9077 45.8663 39.5774 45.8663 40.646C45.8663 41.7146 45.1539 42.3842 44.1707 42.3842Z" fill="white"/>
<path d="M49.5714 36.2291H51.7086V34.2344H49.5714V36.2291ZM49.5714 44.208H51.7086V37.084H49.5714V44.208Z" fill="white"/>
<path d="M56.2219 36.8845C54.6546 36.8845 53.2583 37.7964 53.2583 39.5774H55.3385C55.3385 39.1642 55.6235 38.8507 56.2219 38.8507C56.8203 38.8507 57.1053 39.1642 57.1053 39.8623V40.5035C56.7206 40.2185 56.1649 39.9621 55.2673 39.9621C54.0135 39.9621 52.9164 40.703 52.9164 42.1848C52.9164 43.6666 54.0135 44.4075 55.2673 44.4075C56.1649 44.4075 56.7206 44.094 57.1053 43.6523V44.208H59.1855V39.7199C59.1855 37.7964 57.7892 36.8845 56.2219 36.8845ZM56.0224 42.8972C55.367 42.8972 55.0536 42.598 55.0536 42.1848C55.0536 41.7716 55.367 41.4724 56.0224 41.4724C56.7206 41.4724 57.1053 41.7431 57.1053 42.1848C57.1053 42.598 56.7206 42.8972 56.0224 42.8972Z" fill="white"/>
<defs>
<clipPath id="clip0_247_395">
<rect width="59.9605" height="30.0792" fill="white"/>
</clipPath>
</defs>
</svg>
