<svg width="534" height="395" viewBox="0 0 534 395" fill="none" xmlns="http://www.w3.org/2000/svg">
<g clip-path="url(#clip0_373_874)">
<path d="M104.442 32.0081H77.5948L76.94 34.3032L1.30962 263.164L0 267.427H26.8471L27.5019 265.131L103.132 36.2705L104.442 32.0081ZM200.371 32.0081H174.506H134.236L133.581 34.3032L127.688 54.9597L126.378 59.2222H164.684L97.5664 263.164L96.2568 267.427H123.104L123.759 265.131L199.389 36.2705L200.371 32.0081ZM533.341 32.0081H465.241L464.586 34.3032L458.693 54.9597L457.384 59.2222H497.327L483.249 100.863V101.191C480.629 106.765 478.665 112.995 477.355 118.896L476.7 121.192L478.665 122.503C496.345 134.963 506.494 155.291 506.494 176.604C506.494 213.326 476.7 242.835 440.359 242.835C439.704 242.835 438.722 242.835 438.067 242.835L435.448 242.508L434.465 244.803L428.572 261.525L427.262 265.459L431.191 266.115C434.793 266.443 436.757 266.443 440.359 266.443C490.124 266.443 530.395 226.114 530.395 176.276C530.395 152.996 521.555 131.356 505.512 114.306L531.704 36.2705L533.341 32.0081ZM318.237 31.6802C253.738 31.6802 201.026 84.469 201.026 149.062C201.026 213.654 253.738 266.443 318.237 266.443C382.735 266.443 435.448 213.654 435.448 149.062C435.448 84.469 382.735 31.6802 318.237 31.6802ZM318.237 241.852C267.162 241.852 225.581 200.211 225.581 149.062C225.581 97.9121 267.162 56.2712 318.237 56.2712C369.312 56.2712 410.892 97.9121 410.892 149.062C410.892 200.211 369.312 241.852 318.237 241.852Z" fill="#181818"/>
<path d="M306.391 0L265.793 118.037H289.366L329.964 0H306.391Z" fill="#181818"/>
</g>
<path d="M156.659 393.225H176.937V372.947H156.659V393.225Z" fill="#181818"/>
<path d="M256.814 328.083C249.21 328.083 243.887 331.252 239.832 335.687C236.664 330.618 231.467 328.083 225.131 328.083C218.541 328.083 213.471 331.252 210.556 335.561V329.858H191.546V393.225H210.556V353.684C210.556 347.474 214.105 345.573 217.907 345.573C221.455 345.573 224.497 347.094 224.497 352.163V393.225H243.507V353.684C243.507 347.474 247.056 345.573 250.858 345.573C254.406 345.573 257.448 347.094 257.448 352.163V393.225H276.458V350.515C276.458 335.941 269.234 328.083 256.814 328.083Z" fill="#181818"/>
<path d="M305.43 369.145H350.674C351.181 366.737 351.435 364.203 351.435 361.541C351.435 342.404 338.001 328.083 319.498 328.083C299.473 328.083 285.533 342.658 285.533 361.541C285.533 380.425 298.967 394.999 320.004 394.999C334.325 394.999 345.478 388.029 349.66 374.722L331.157 374.848C329.256 377.637 324.82 379.664 320.258 379.664C313.668 379.664 307.711 376.623 305.43 369.145ZM305.303 354.698C307.331 348.361 312.274 344.939 319.371 344.939C324.947 344.939 330.523 347.474 332.551 354.698H305.303Z" fill="#181818"/>
<path d="M407.974 304.511V335.814C403.792 330.998 397.582 328.083 389.091 328.083C372.488 328.083 358.801 342.658 358.801 361.541C358.801 380.425 372.488 394.999 389.091 394.999C397.582 394.999 403.792 392.084 407.974 387.268V393.225H426.984V304.511H407.974ZM392.893 377.003C384.148 377.003 377.811 371.046 377.811 361.541C377.811 352.036 384.148 346.08 392.893 346.08C401.637 346.08 407.974 352.036 407.974 361.541C407.974 371.046 401.637 377.003 392.893 377.003Z" fill="#181818"/>
<path d="M440.931 322.254H459.941V304.511H440.931V322.254ZM440.931 393.225H459.941V329.858H440.931V393.225Z" fill="#181818"/>
<path d="M500.086 328.083C486.146 328.083 473.726 336.194 473.726 352.036H492.229C492.229 348.361 494.764 345.573 500.086 345.573C505.409 345.573 507.944 348.361 507.944 354.571V360.274C504.522 357.739 499.579 355.458 491.595 355.458C480.443 355.458 470.684 362.048 470.684 375.229C470.684 388.409 480.443 394.999 491.595 394.999C499.579 394.999 504.522 392.211 507.944 388.282V393.225H526.447V353.304C526.447 336.194 514.027 328.083 500.086 328.083ZM498.312 381.565C492.482 381.565 489.694 378.904 489.694 375.229C489.694 371.553 492.482 368.892 498.312 368.892C504.522 368.892 507.944 371.3 507.944 375.229C507.944 378.904 504.522 381.565 498.312 381.565Z" fill="#181818"/>
<defs>
<clipPath id="clip0_373_874">
<rect width="533.341" height="267.551" fill="white"/>
</clipPath>
</defs>
</svg>
